<?xml version="1.0" standalone="no"?>
<!DOCTYPE svg PUBLIC "-//W3C//DTD SVG 20010904//EN"
 "http://www.w3.org/TR/2001/REC-SVG-20010904/DTD/svg10.dtd">
<svg version="1.0" xmlns="http://www.w3.org/2000/svg"
 width="512.000000pt" height="512.000000pt" viewBox="0 0 512.000000 512.000000"
 preserveAspectRatio="xMidYMid meet">

<g transform="translate(0.000000,512.000000) scale(0.100000,-0.100000)"
fill="#000000" stroke="none">
<path d="M405 4487 c-138 -36 -257 -125 -334 -251 -61 -98 -85 -260 -57 -380
70 -298 380 -478 671 -388 232 71 394 310 372 547 -20 208 -158 387 -354 457
-72 26 -226 33 -298 15z"/>
<path d="M1894 4320 c-287 -43 -404 -391 -199 -595 25 -26 72 -59 103 -73 l57
-27 1500 0 1500 0 57 27 c63 29 139 101 167 157 93 186 7 415 -187 493 l-57
23 -1445 1 c-795 1 -1468 -2 -1496 -6z"/>
<path d="M408 3074 c-189 -45 -348 -206 -393 -396 -66 -279 115 -566 397 -633
295 -69 593 134 640 438 56 363 -286 678 -644 591z"/>
<path d="M1840 2897 c-97 -32 -174 -101 -219 -197 -22 -46 -26 -69 -26 -140 0
-94 24 -162 81 -229 37 -44 117 -94 174 -110 34 -9 396 -11 1525 -9 l1480 3
56 26 c79 37 133 90 171 167 29 59 33 76 33 152 0 76 -4 93 -33 152 -38 77
-92 130 -171 167 l-56 26 -1490 2 c-1099 1 -1499 -2 -1525 -10z"/>
<path d="M443 1670 c-268 -48 -458 -288 -440 -555 15 -214 150 -392 352 -467
86 -32 264 -32 348 -1 299 111 438 445 303 727 -40 82 -123 176 -201 225 -95
60 -250 90 -362 71z"/>
<path d="M1857 1489 c-141 -33 -253 -166 -264 -313 -13 -152 79 -299 223 -357
l59 -24 1480 0 1480 0 57 23 c194 78 280 307 187 493 -28 56 -104 128 -167
157 l-57 27 -1480 2 c-843 0 -1496 -3 -1518 -8z"/>
</g>
</svg>
