<?xml version="1.0" standalone="no"?>
<!DOCTYPE svg PUBLIC "-//W3C//DTD SVG 20010904//EN"
 "http://www.w3.org/TR/2001/REC-SVG-20010904/DTD/svg10.dtd">
<svg version="1.0" xmlns="http://www.w3.org/2000/svg"
 width="512.000000pt" height="512.000000pt" viewBox="0 0 512.000000 512.000000"
 preserveAspectRatio="xMidYMid meet">

<g transform="translate(0.000000,512.000000) scale(0.100000,-0.100000)"
fill="#000000" stroke="none">
<path d="M681 4304 c-169 -45 -301 -180 -346 -351 -23 -87 -22 -2700 0 -2788
45 -172 179 -305 352 -350 86 -23 3660 -23 3746 0 173 45 307 178 352 350 13
52 15 220 15 1315 0 1382 3 1310 -61 1431 -38 70 -126 157 -197 193 -114 58
-80 56 -1149 56 l-984 0 -51 41 c-65 51 -132 85 -205 104 -84 22 -1391 21
-1472 -1z m1416 -315 c50 -19 74 -52 160 -224 47 -93 103 -193 124 -221 47
-61 131 -122 214 -155 l60 -24 862 -5 c851 -5 862 -5 889 -26 15 -11 37 -33
48 -48 21 -27 21 -33 21 -1046 0 -1013 0 -1019 -21 -1046 -11 -15 -33 -37 -48
-48 l-27 -21 -1819 0 -1819 0 -27 21 c-15 11 -37 33 -48 48 -21 27 -21 32 -24
1339 -1 722 0 1326 3 1344 7 40 49 91 90 109 39 17 1317 20 1362 3z m2309
-175 c44 -32 66 -68 71 -117 l5 -45 -58 14 c-48 11 -217 14 -876 14 -554 0
-826 3 -845 11 -40 15 -71 47 -99 102 l-24 47 899 -2 c891 -3 900 -3 927 -24z"/>
</g>
</svg>
