<?xml version="1.0" standalone="no"?>
<!DOCTYPE svg PUBLIC "-//W3C//DTD SVG 20010904//EN"
 "http://www.w3.org/TR/2001/REC-SVG-20010904/DTD/svg10.dtd">
<svg version="1.0" xmlns="http://www.w3.org/2000/svg"
 width="512.000000pt" height="512.000000pt" viewBox="0 0 512.000000 512.000000"
 preserveAspectRatio="xMidYMid meet">

<g transform="translate(0.000000,512.000000) scale(0.100000,-0.100000)"
fill="#000000" stroke="none">
<path d="M2770 4469 l0 -214 113 -22 c941 -182 1550 -1108 1341 -2041 -72
-321 -224 -596 -461 -835 -54 -54 -106 -103 -115 -108 -17 -9 -18 7 -18 276
l0 285 -215 0 -215 0 0 -640 0 -640 640 0 640 0 0 215 0 215 -254 0 -254 0 97
97 c335 337 545 765 607 1237 24 181 15 475 -20 659 -127 663 -552 1222 -1157
1521 -198 98 -468 180 -666 202 l-63 7 0 -214z"/>
<path d="M640 4375 l0 -215 253 0 253 0 -106 -108 c-338 -346 -542 -772 -600
-1252 -5 -46 -10 -154 -10 -240 0 -246 30 -438 105 -666 245 -747 887 -1302
1659 -1434 65 -11 127 -20 137 -20 18 0 19 10 19 213 l0 213 -113 21 c-670
129 -1208 658 -1347 1326 -103 494 25 1026 340 1412 63 77 190 206 233 237
l27 19 0 -285 0 -286 215 0 215 0 0 640 0 640 -640 0 -640 0 0 -215z"/>
<path d="M2865 2790 c-330 -330 -604 -600 -610 -600 -5 0 -144 134 -307 297
l-298 298 -145 -145 c-80 -80 -145 -149 -145 -155 0 -6 201 -211 448 -458
l447 -447 755 755 755 755 -150 150 -150 150 -600 -600z"/>
</g>
</svg>
